# File created by Blade
# Date/Time:  Wed Jan 21 14:43:55 2015
# Frame Rate: 120.000 fps
#------------------------------------------------------
:FULLY-SPECIFIED
:DEGREES
967
root 20.179030 35.684741 -20.430016 -167.641660 -3.325091 182.494442
Spine -21.425273 -1.668448 -11.436887
Head 22.860966 -5.462082 -3.720246
LeftShoulder -21.016117 -63.985080 59.298613
LeftArm 43.408760 -30.819726 -6.473093
LeftForeArm -72.588980 -0.000000 78.337500
LeftHand 2.910405 0.000000 -18.083219
LeftHandThumb1 -26.253704 0.000000 33.147579
RightShoulder -15.828285 27.307778 -56.950307
RightArm 140.182119 72.375026 105.418328
RightForeArm 44.684546 0.000000 111.382208
RightHand 9.274906 -0.000000 -4.764755
RightHandThumb1 -24.326973 -0.000000 -32.862282
LeftUpLeg -5.618532 14.954090 3.845632
LeftLeg -7.405495 -0.000000 0.000000
LeftFoot -16.479818 22.910516 -15.085144
LeftToeBase 27.770111 -0.000000 -0.000000
RightUpLeg -6.222736 -8.841849 2.536998
RightLeg -2.330898 -0.000000 0.000000
RightFoot -20.217808 -21.479970 20.135149
RightToeBase 23.748571 -0.000000 -0.000000
968
root 20.242790 35.685429 -20.405556 -167.555458 -3.225291 182.630765
Spine -21.364101 -1.698002 -11.764895
Head 22.973781 -5.660831 -3.762151
LeftShoulder -20.838376 -63.959977 59.083105
LeftArm 43.209739 -30.919402 -6.245869
LeftForeArm -72.505453 -0.000000 78.353928
LeftHand 2.958856 -0.000000 -18.116740
LeftHandThumb1 -26.253704 0.000000 33.147579
RightShoulder -15.767350 27.365815 -57.079694
RightArm 140.202113 72.446407 105.468267
RightForeArm 44.718026 0.000000 111.403938
RightHand 9.503670 -0.000000 -4.758394
RightHandThumb1 -24.326973 -0.000000 -32.862282
LeftUpLeg -5.739940 15.207903 4.014119
LeftLeg -7.420304 -0.000000 0.000000
LeftFoot -16.421163 22.823186 -15.065260
LeftToeBase 27.855961 -0.000000 -0.000000
RightUpLeg -6.379293 -8.759346 2.760858
RightLeg -2.307791 -0.000000 0.000000
RightFoot -20.128220 -21.346875 20.091266
RightToeBase 23.790068 -0.000000 -0.000000
969
root 20.305944 35.685346 -20.386304 -167.511388 -3.135487 182.760448
Spine -21.266530 -1.734805 -12.097154
Head 23.063101 -5.825031 -3.831975
LeftShoulder -20.650681 -63.944913 58.789254
LeftArm 43.093175 -30.981406 -6.079400
LeftForeArm -72.485004 -0.000000 78.353228
LeftHand 2.872200 0.000000 -18.157946
LeftHandThumb1 -26.253704 0.000000 33.147579
RightShoulder -15.666432 27.343737 -57.162211
RightArm 140.510019 72.409613 105.708602
RightForeArm 44.674087 -0.000000 111.397944
RightHand 9.415543 -0.000000 -4.631012
RightHandThumb1 -24.326973 -0.000000 -32.862282
LeftUpLeg -5.769457 15.339105 4.200388
LeftLeg -7.507121 -0.000000 0.000000
LeftFoot -16.350899 22.871633 -15.081816
LeftToeBase 27.928781 -0.000000 -0.000000
RightUpLeg -6.471225 -8.663847 2.972419
RightLeg -2.309058 -0.000000 0.000000
RightFoot -20.057693 -21.297563 20.071499
RightToeBase 23.630023 -0.000000 -0.000000
970
root 20.372705 35.685311 -20.363686 -167.467860 -2.999680 182.899281
Spine -21.168235 -1.738446 -12.443492
Head 23.175054 -5.943781 -3.858983
LeftShoulder -20.372102 -63.853589 58.425836
LeftArm 42.908856 -31.098997 -5.858264
LeftForeArm -72.439453 0.000000 78.402495
LeftHand 2.923530 -0.000000 -18.112753
LeftHandThumb1 -26.253704 0.000000 33.147579
RightShoulder -15.608399 27.356510 -57.295738
RightArm 140.496591 72.397532 105.689541
RightForeArm 44.708084 -0.000000 111.408330
RightHand 9.477463 0.000000 -4.549776
RightHandThumb1 -24.326973 -0.000000 -32.862282
LeftUpLeg -5.799202 15.484278 4.405523
LeftLeg -7.579540 -0.000000 0.000000
LeftFoot -16.293222 22.933236 -15.105161
LeftToeBase 27.884767 -0.000000 -0.000000
RightUpLeg -6.576593 -8.524781 3.194075
RightLeg -2.300805 -0.000000 0.000000
RightFoot -19.978793 -21.200164 20.029887
RightToeBase 23.701222 -0.000000 -0.000000
971
root 20.440176 35.684199 -20.343973 -167.456583 -2.864565 183.030618
Spine -21.024752 -1.739943 -12.812304
Head 23.233542 -6.102812 -3.920848
LeftShoulder -20.262798 -63.760845 58.170265
LeftArm 42.868613 -31.185087 -5.841898
LeftForeArm -72.452053 -0.000000 78.414188
LeftHand 2.871776 -0.000000 -18.068718
LeftHandThumb1 -26.253704 0.000000 33.147579
RightShoulder -15.565747 27.308359 -57.439254
RightArm 140.593820 72.422092 105.804185
RightForeArm 44.800031 -0.000000 111.451408
RightHand 9.446158 -0.000000 -4.570518
RightHandThumb1 -24.326973 -0.000000 -32.862282
LeftUpLeg -5.796024 15.611077 4.620618
LeftLeg -7.631542 -0.000000 0.000000
LeftFoot -16.226635 22.947320 -15.148853
LeftToeBase 27.778618 -0.000000 -0.000000
RightUpLeg -6.638673 -8.400706 3.407750
RightLeg -2.302548 -0.000000 0.000000
RightFoot -19.905395 -21.165734 19.929365
RightToeBase 23.705997 -0.000000 -0.000000
972
root 20.509276 35.681557 -20.324906 -167.456639 -2.686440 183.177573
Spine -20.884805 -1.723105 -13.156992
Head 23.267617 -6.176258 -4.023596
LeftShoulder -19.976506 -63.641161 57.711123
LeftArm 42.763162 -31.295530 -5.649358
LeftForeArm -72.475318 0.000000 78.418716
LeftHand 2.868264 0.000000 -18.042152
LeftHandThumb1 -26.253704 0.000000 33.147579
RightShoulder -15.491384 27.310568 -57.642626
RightArm 140.485162 72.470050 105.739917
RightForeArm 44.874982 -0.000000 111.488708
RightHand 9.469685 0.000000 -4.576618
RightHandThumb1 -24.326973 -0.000000 -32.862282
LeftUpLeg -5.756579 15.743823 4.856076
LeftLeg -7.704271 -0.000000 0.000000
LeftFoot -16.194416 23.048691 -15.143531
LeftToeBase 27.825597 -0.000000 -0.000000
RightUpLeg -6.682160 -8.144412 3.618247
RightLeg -2.315943 -0.000000 0.000000
RightFoot -19.853476 -21.182562 19.890372
RightToeBase 23.685032 -0.000000 -0.000000
973
root 20.578418 35.679917 -20.307346 -167.472823 -2.500323 183.308626
Spine -20.730579 -1.716661 -13.523398
Head 23.306856 -6.199075 -4.121119
LeftShoulder -19.755231 -63.458120 57.274709
LeftArm 42.740548 -31.434091 -5.572100
LeftForeArm -72.443391 -0.000000 78.403158
LeftHand 2.904303 -0.000000 -18.014339
LeftHandThumb1 -26.253704 0.000000 33.147579
RightShoulder -15.462251 27.409894 -57.883617
RightArm 140.045833 72.455451 105.398204
RightForeArm 45.311800 -0.000000 111.458470
RightHand 9.585938 -0.000000 -4.195177
RightHandThumb1 -24.326973 -0.000000 -32.862282
LeftUpLeg -5.690176 15.876244 5.078269
LeftLeg -7.793688 -0.000000 0.000000
LeftFoot -16.144955 23.151963 -15.191262
LeftToeBase 27.846612 -0.000000 -0.000000
RightUpLeg -6.702230 -7.928878 3.816178
RightLeg -2.337801 -0.000000 0.000000
RightFoot -19.769410 -21.158717 19.917189
RightToeBase 23.360576 -0.000000 -0.000000
974
root 20.651566 35.677541 -20.289789 -167.514007 -2.316630 183.445040
Spine -20.538608 -1.732743 -13.890509
Head 23.280905 -6.239839 -4.262584
LeftShoulder -19.712863 -63.323949 57.036052
LeftArm 42.669193 -31.454517 -5.538534
LeftForeArm -72.378786 -0.000000 78.431969
LeftHand 2.859201 -0.000000 -17.965293
LeftHandThumb1 -26.253704 0.000000 33.147579
RightShoulder -15.423351 27.545176 -58.095561
RightArm 139.400709 72.436169 104.797968
RightForeArm 45.310409 -0.000000 111.475016
RightHand 9.528891 -0.000000 -4.184896
RightHandThumb1 -24.326973 -0.000000 -32.862282
LeftUpLeg -5.625637 16.012183 5.320223
LeftLeg -7.819005 -0.000000 0.000000
LeftFoot -16.131001 23.250504 -15.195091
LeftToeBase 27.828581 -0.000000 -0.000000
RightUpLeg -6.689826 -7.698831 4.023683
RightLeg -2.367729 -0.000000 0.000000
RightFoot -19.732275 -21.174779 19.783976
RightToeBase 23.645838 -0.000000 -0.000000
975
root 20.726640 35.674921 -20.272118 -167.551574 -2.116677 183.578719
Spine -20.363312 -1.725754 -14.281388
Head 23.273514 -6.294498 -4.397484
LeftShoulder -19.544944 -63.191805 56.670901
LeftArm 42.597507 -31.494446 -5.461647
LeftForeArm -72.279134 -0.000000 78.463204
LeftHand 2.881687 -0.000000 -17.997292
LeftHandThumb1 -26.253704 0.000000 33.147579
RightShoulder -15.330604 27.594932 -58.263262
RightArm 138.963061 72.431440 104.369923
RightForeArm 45.377660 -0.000000 111.425724
RightHand 9.676768 -0.000000 -4.076079
RightHandThumb1 -24.326973 -0.000000 -32.862282
LeftUpLeg -5.550244 16.135480 5.563628
LeftLeg -7.857854 -0.000000 0.000000
LeftFoot -16.123999 23.371956 -15.237340
LeftToeBase 27.890039 -0.000000 -0.000000
RightUpLeg -6.698723 -7.494149 4.237854
RightLeg -2.365641 -0.000000 0.000000
RightFoot -19.676688 -21.210114 19.641056
RightToeBase 23.561430 -0.000000 -0.000000
976
root 20.798184 35.671912 -20.257538 -167.596657 -1.902593 183.690612
Spine -20.185254 -1.730070 -14.699615
Head 23.249268 -6.330131 -4.573822
LeftShoulder -19.431627 -62.982581 56.288757
LeftArm 42.628012 -31.556697 -5.412470
LeftForeArm -72.245257 -0.000000 78.433176
LeftHand 2.874343 -0.000000 -17.935937
LeftHandThumb1 -26.253704 0.000000 33.147579
RightShoulder -15.251233 27.755986 -58.421227
RightArm 138.189060 72.389524 103.578313
RightForeArm 45.417986 -0.000000 111.391347
RightHand 9.531361 -0.000000 -4.049070
RightHandThumb1 -24.326973 -0.000000 -32.862282
LeftUpLeg -5.442923 16.239766 5.786457
LeftLeg -7.919240 -0.000000 0.000000
LeftFoot -16.102317 23.504096 -15.311145
LeftToeBase 27.897718 -0.000000 -0.000000
RightUpLeg -6.681089 -7.290145 4.420185
RightLeg -2.386697 -0.000000 0.000000
RightFoot -19.618103 -21.207492 19.539880
RightToeBase 23.508699 -0.000000 -0.000000
977
root 20.879159 35.669820 -20.245263 -167.669552 -1.758332 183.827667
Spine -19.952977 -1.779048 -15.106732
Head 23.186629 -6.350170 -4.744809
LeftShoulder -19.516935 -62.907916 56.146488
LeftArm 42.643994 -31.458677 -5.462922
LeftForeArm -72.254621 -0.000000 78.447761
LeftHand 2.749024 0.000000 -17.977694
LeftHandThumb1 -26.253704 0.000000 33.147579
RightShoulder -15.165121 27.859536 -58.557580
RightArm 137.560553 72.384536 102.909104
RightForeArm 45.453844 -0.000000 111.276659
RightHand 9.615900 -0.000000 -3.930742
RightHandThumb1 -24.326973 -0.000000 -32.862282
LeftUpLeg -5.345822 16.334961 6.065234
LeftLeg -7.934209 -0.000000 0.000000
LeftFoot -16.089222 23.590791 -15.361872
LeftToeBase 27.794285 -0.000000 -0.000000
RightUpLeg -6.609414 -7.156755 4.655033
RightLeg -2.446262 -0.000000 0.000000
RightFoot -19.538023 -21.174055 19.458664
RightToeBase 23.614991 -0.000000 -0.000000
978
root 20.953102 35.666316 -20.229437 -167.689281 -1.555987 183.936215
Spine -19.838821 -1.767893 -15.512324
Head 23.127848 -6.187169 -4.897890
LeftShoulder -19.211995 -62.836202 55.548175
LeftArm 42.659854 -31.386405 -5.367861
LeftForeArm -72.271334 -0.000000 78.412167
LeftHand 2.796664 -0.000000 -18.002642
LeftHandThumb1 -26.253704 0.000000 33.147579
RightShoulder -14.992123 27.822364 -58.711123
RightArm 137.220997 72.334439 102.510665
RightForeArm 45.432155 0.000000 111.174773
RightHand 9.536354 -0.000000 -3.766365
RightHandThumb1 -24.326973 -0.000000 -32.862282
LeftUpLeg -5.300999 16.480346 6.273500
LeftLeg -7.937115 -0.000000 0.000000
LeftFoot -16.087923 23.705318 -15.391080
LeftToeBase 27.788558 -0.000000 -0.000000
RightUpLeg -6.615628 -6.976740 4.842750
RightLeg -2.470130 -0.000000 0.000000
RightFoot -19.470323 -21.140857 19.348585
RightToeBase 23.577170 -0.000000 -0.000000
979
root 21.032137 35.663495 -20.208807 -167.712218 -1.366838 184.054353
Spine -19.684543 -1.789369 -15.925265
Head 23.069474 -6.071224 -5.080553
LeftShoulder -18.981564 -62.693938 55.025541
LeftArm 42.651363 -31.363378 -5.232296
LeftForeArm -72.370189 -0.000000 78.383409
LeftHand 2.796328 -0.000000 -18.011831
LeftHandThumb1 -26.253704 0.000000 33.147579
RightShoulder -14.856884 27.846745 -58.861033
RightArm 136.678558 72.266710 101.915093
RightForeArm 45.368649 0.000000 111.067614
RightHand 9.489013 0.000000 -3.801677
RightHandThumb1 -24.326973 -0.000000 -32.862282
LeftUpLeg -5.257091 16.565474 6.505748
LeftLeg -7.947912 -0.000000 0.000000
LeftFoot -16.088584 23.863697 -15.477677
LeftToeBase 27.778109 -0.000000 -0.000000
RightUpLeg -6.642251 -6.856515 5.060033
RightLeg -2.462367 -0.000000 0.000000
RightFoot -19.402741 -21.091190 19.209669
RightToeBase 23.516660 -0.000000 -0.000000
